HIERARCHY
ROOT Hip
{
	OFFSET	0.0000	0.0000	0.0000
	CHANNELS 6 Xposition Yposition Zposition Xrotation Yrotation Zrotation
	JOINT LowerSpine
	{
		OFFSET	0.0000	9.0666	-4.9063
		CHANNELS 3 Xrotation Yrotation Zrotation
		JOINT MiddleSpine
		{
			OFFSET	0.0000	8.2739	0.4322
			CHANNELS 3 Xrotation Yrotation Zrotation
			JOINT Chest
			{
				OFFSET	0.0000	10.2381	-2.2789
				CHANNELS 3 Xrotation Yrotation Zrotation
				JOINT Neck
				{
					OFFSET	0.0000	23.0710	-0.4798
					CHANNELS 3 Xrotation Yrotation Zrotation
					JOINT Head
					{
						OFFSET	0.0000	13.0285	3.5437
						CHANNELS 3 Xrotation Yrotation Zrotation
						End Site
						{
							OFFSET	0.0001	18.2042	0.5434
						}
					}
				}
				JOINT LClavicle
				{
					OFFSET	2.3292	22.2647	7.6280
					CHANNELS 3 Xrotation Yrotation Zrotation
					JOINT LShoulder
					{
						OFFSET	13.6076	3.1936	-5.1675
						CHANNELS 3 Xrotation Yrotation Zrotation
						JOINT LForearm
						{
							OFFSET	28.9052	-0.1027	-0.2505
							CHANNELS 3 Xrotation Yrotation Zrotation
							JOINT LHand
							{
								OFFSET	24.1130	0.0700	-0.1444
								CHANNELS 3 Xrotation Yrotation Zrotation
								JOINT LFinger1
								{
									OFFSET	9.3455	0.8173	2.5957
									CHANNELS 3 Xrotation Yrotation Zrotation
									JOINT LFinger11
									{
										OFFSET	3.4957	-0.8524	0.6160
										CHANNELS 3 Xrotation Yrotation Zrotation
										JOINT LFinger12
										{
											OFFSET	2.3864	-0.5822	0.4207
											CHANNELS 3 Xrotation Yrotation Zrotation
											End Site
											{
												OFFSET	1.6982	-0.5069	0.2755
											}
										}
									}
								}
								JOINT LFinger2
								{
									OFFSET	9.4850	0.9439	0.2260
									CHANNELS 3 Xrotation Yrotation Zrotation
									JOINT LFinger21
									{
										OFFSET	4.3222	0.0120	-0.0255
										CHANNELS 3 Xrotation Yrotation Zrotation
										JOINT LFinger22
										{
											OFFSET	2.3957	0.0073	-0.0146
											CHANNELS 3 Xrotation Yrotation Zrotation
											End Site
											{
												OFFSET	2.1519	-0.1519	0.0029
											}
										}
									}
								}
								JOINT LFinger3
								{
									OFFSET	8.9890	0.6298	-2.1266
									CHANNELS 3 Xrotation Yrotation Zrotation
									JOINT LFinger31
									{
										OFFSET	3.9220	-0.1986	-0.2455
										CHANNELS 3 Xrotation Yrotation Zrotation
										JOINT LFinger32
										{
											OFFSET	2.2349	-0.1124	-0.1405
											CHANNELS 3 Xrotation Yrotation Zrotation
											End Site
											{
												OFFSET	1.9761	-0.2430	-0.0934
											}
										}
									}
								}
								JOINT LFinger4
								{
									OFFSET	8.3414	-0.6339	-3.6727
									CHANNELS 3 Xrotation Yrotation Zrotation
									JOINT LFinger41
									{
										OFFSET	2.4124	-0.5031	-0.6659
										CHANNELS 3 Xrotation Yrotation Zrotation
										JOINT LFinger42
										{
											OFFSET	1.7690	-0.3684	-0.4886
											CHANNELS 3 Xrotation Yrotation Zrotation
											End Site
											{
												OFFSET	1.5701	-0.4314	-0.3602
											}
										}
									}
								}
								JOINT LFinger0
								{
									OFFSET	1.9332	-1.4632	1.4655
									CHANNELS 3 Xrotation Yrotation Zrotation
									JOINT LFinger01
									{
										OFFSET	3.5994	-1.1822	2.7138
										CHANNELS 3 Xrotation Yrotation Zrotation
										JOINT LFinger02
										{
											OFFSET	2.3702	-0.8481	1.7076
											CHANNELS 3 Xrotation Yrotation Zrotation
											End Site
											{
												OFFSET	1.7429	-0.6000	1.1935
											}
										}
									}
								}
							}
						}
					}
				}
				JOINT RClavicle
				{
					OFFSET	-2.3292	22.2647	7.6280
					CHANNELS 3 Xrotation Yrotation Zrotation
					JOINT RShoulder
					{
						OFFSET	-13.6100	3.1941	-5.1684
						CHANNELS 3 Xrotation Yrotation Zrotation
						JOINT RForearm
						{
							OFFSET	-28.9052	-0.1026	-0.2505
							CHANNELS 3 Xrotation Yrotation Zrotation
							JOINT RHand
							{
								OFFSET	-24.1130	0.0700	-0.1444
								CHANNELS 3 Xrotation Yrotation Zrotation
								JOINT RFinger1
								{
									OFFSET	-9.3455	0.8173	2.5957
									CHANNELS 3 Xrotation Yrotation Zrotation
									JOINT RFinger11
									{
										OFFSET	-3.4957	-0.8524	0.6160
										CHANNELS 3 Xrotation Yrotation Zrotation
										JOINT RFinger12
										{
											OFFSET	-2.3864	-0.5822	0.4207
											CHANNELS 3 Xrotation Yrotation Zrotation
											End Site
											{
												OFFSET	-1.6982	-0.5069	0.2755
											}
										}
									}
								}
								JOINT RFinger2
								{
									OFFSET	-9.4850	0.9439	0.2260
									CHANNELS 3 Xrotation Yrotation Zrotation
									JOINT RFinger21
									{
										OFFSET	-4.3222	0.0121	-0.0255
										CHANNELS 3 Xrotation Yrotation Zrotation
										JOINT RFinger22
										{
											OFFSET	-2.3957	0.0073	-0.0146
											CHANNELS 3 Xrotation Yrotation Zrotation
											End Site
											{
												OFFSET	-2.1519	-0.1519	0.0029
											}
										}
									}
								}
								JOINT RFinger3
								{
									OFFSET	-8.9890	0.6298	-2.1266
									CHANNELS 3 Xrotation Yrotation Zrotation
									JOINT RFinger31
									{
										OFFSET	-3.9220	-0.1986	-0.2455
										CHANNELS 3 Xrotation Yrotation Zrotation
										JOINT RFinger32
										{
											OFFSET	-2.2349	-0.1124	-0.1405
											CHANNELS 3 Xrotation Yrotation Zrotation
											End Site
											{
												OFFSET	-1.9761	-0.2429	-0.0934
											}
										}
									}
								}
								JOINT RFinger4
								{
									OFFSET	-8.3414	-0.6339	-3.6727
									CHANNELS 3 Xrotation Yrotation Zrotation
									JOINT RFinger41
									{
										OFFSET	-2.4124	-0.5031	-0.6659
										CHANNELS 3 Xrotation Yrotation Zrotation
										JOINT RFinger42
										{
											OFFSET	-1.7690	-0.3684	-0.4886
											CHANNELS 3 Xrotation Yrotation Zrotation
											End Site
											{
												OFFSET	-1.5701	-0.4314	-0.3602
											}
										}
									}
								}
								JOINT RFinger0
								{
									OFFSET	-1.9332	-1.4632	1.4655
									CHANNELS 3 Xrotation Yrotation Zrotation
									JOINT RFinger01
									{
										OFFSET	-3.5994	-1.1822	2.7138
										CHANNELS 3 Xrotation Yrotation Zrotation
										JOINT RFinger02
										{
											OFFSET	-2.3702	-0.8481	1.7076
											CHANNELS 3 Xrotation Yrotation Zrotation
											End Site
											{
												OFFSET	-1.7429	-0.6000	1.1935
											}
										}
									}
								}
							}
						}
					}
				}
			}
		}
	}
	JOINT RThigh
	{
		OFFSET	-9.6990	4.0984	-0.7995
		CHANNELS 3 Xrotation Yrotation Zrotation
		JOINT RShin
		{
			OFFSET	-0.7761	-42.1862	0.0000
			CHANNELS 3 Xrotation Yrotation Zrotation
			JOINT RFoot
			{
				OFFSET	0.0000	-41.4242	0.0000
				CHANNELS 3 Xrotation Yrotation Zrotation
				JOINT RToe
				{
					OFFSET	0.0000	-4.5529	9.5207
					CHANNELS 3 Xrotation Yrotation Zrotation
					End Site
					{
						OFFSET	0.0000	0.0000	6.3871
					}
				}
			}
		}
	}
	JOINT LThigh
	{
		OFFSET	9.6989	4.0986	-0.7995
		CHANNELS 3 Xrotation Yrotation Zrotation
		JOINT LShin
		{
			OFFSET	0.7761	-42.1865	0.0000
			CHANNELS 3 Xrotation Yrotation Zrotation
			JOINT LFoot
			{
				OFFSET	0.0000	-41.4242	0.0000
				CHANNELS 3 Xrotation Yrotation Zrotation
				JOINT LToe
				{
					OFFSET	0.0000	-4.5529	9.5207
					CHANNELS 3 Xrotation Yrotation Zrotation
					End Site
					{
						OFFSET	0.0000	0.0000	6.3871
					}
				}
			}
		}
	}
}
MOTION
Frames:	7
Frame Time: 0.0333333000
	-8.9633	86.3226	54.2110	-14.414350	-22.808250	-8.146926	0.000000	0.000000	0.000000	3.232207	0.156937	1.598215	10.748270	0.870293	5.273245	0.000000	0.000000	0.000000	0.000000	0.000000	0.000000	0.000000	0.000000	-14.687420	33.119870	-49.626510	-40.345370	26.771720	-20.450990	-0.212654	0.000000	0.000000	0.000000	0.000000	0.000000	0.000000	0.000000	0.000000	0.000000	0.000000	0.000000	0.000000	0.000000	0.000000	0.000000	0.000000	0.000000	0.000000	0.000000	0.000000	0.000000	0.000000	0.000000	0.000000	0.000000	0.000000	0.000000	0.000000	0.000000	0.000000	0.000000	0.000000	0.000000	0.000000	0.000000	0.000000	0.000000	0.000000	0.000000	0.000000	0.000000	0.000000	0.000000	0.000000	0.000000	0.000000	0.000000	0.000000	0.000000	0.000000	14.727250	-0.738618	1.332186	58.729900	1.214220	15.555090	10.707860	0.000000	0.000000	0.000000	0.000000	0.000000	0.000000	0.000000	0.000000	0.000000	0.000000	0.000000	0.000000	0.000000	0.000000	0.000000	0.000000	0.000000	0.000000	0.000000	0.000000	0.000000	0.000000	0.000000	0.000000	0.000000	0.000000	0.000000	0.000000	0.000000	0.000000	0.000000	0.000000	0.000000	0.000000	0.000000	0.000000	0.000000	0.000000	0.000000	0.000000	0.000000	0.000000	0.000000	0.000000	0.000000	0.000000	0.000000	0.000000	19.030760	0.544042	3.182110	1.557064	-0.002399	-0.268832	-5.716187	-13.165100	-6.972731	0.000000	0.000000	0.000000	18.216880	8.472874	2.131933	9.651510	7.855801	-1.314324	-11.431520	-7.364709	-4.512165	0.000000	0.000000	0.000000
	-7.6312	86.0720	54.2543	-12.793760	-18.817970	-5.912415	0.000000	0.000000	0.000000	2.940310	0.121860	1.623264	9.780118	0.728230	5.371958	0.000000	0.000000	0.000000	0.000000	0.000000	0.000000	0.000000	0.000000	-15.216370	27.377690	-50.991990	-45.232440	10.869230	-17.536210	-5.359028	0.000000	0.000000	0.000000	0.000000	0.000000	0.000000	0.000000	0.000000	0.000000	0.000000	0.000000	0.000000	0.000000	0.000000	0.000000	0.000000	0.000000	0.000000	0.000000	0.000000	0.000000	0.000000	0.000000	0.000000	0.000000	0.000000	0.000000	0.000000	0.000000	0.000000	0.000000	0.000000	0.000000	0.000000	0.000000	0.000000	0.000000	0.000000	0.000000	0.000000	0.000000	0.000000	0.000000	0.000000	0.000000	0.000000	0.000000	0.000000	0.000000	0.000000	14.880730	13.615600	17.808840	58.490980	-3.373104	21.382000	-0.003009	0.000000	0.000000	0.000000	0.000000	0.000000	0.000000	0.000000	0.000000	0.000000	0.000000	0.000000	0.000000	0.000000	0.000000	0.000000	0.000000	0.000000	0.000000	0.000000	0.000000	0.000000	0.000000	0.000000	0.000000	0.000000	0.000000	0.000000	0.000000	0.000000	0.000000	0.000000	0.000000	0.000000	0.000000	0.000000	0.000000	0.000000	0.000000	0.000000	0.000000	0.000000	0.000000	0.000000	0.000000	0.000000	0.000000	0.000000	0.000000	18.204180	-0.014948	-0.102696	1.243689	0.035838	3.350259	-9.525719	-15.108500	-8.724646	0.000000	0.000000	0.000000	14.402500	-0.057583	-0.485887	12.933790	-0.020964	0.032448	-14.206530	6.211564	3.982057	0.000000	0.000000	0.000000
	-7.3865	85.7146	54.7608	-12.822630	-18.162910	-6.327721	0.000000	0.000000	0.000000	2.935897	-0.117437	1.692618	9.790509	-0.053389	5.649193	0.000000	0.000000	0.000000	0.000000	0.000000	0.000000	0.000000	0.000000	-15.273120	25.065680	-47.915490	-47.692010	9.829299	-18.197080	-4.453692	0.000000	0.000000	0.000000	0.000000	0.000000	0.000000	0.000000	0.000000	0.000000	0.000000	0.000000	0.000000	0.000000	0.000000	0.000000	0.000000	0.000000	0.000000	0.000000	0.000000	0.000000	0.000000	0.000000	0.000000	0.000000	0.000000	0.000000	0.000000	0.000000	0.000000	0.000000	0.000000	0.000000	0.000000	0.000000	0.000000	0.000000	0.000000	0.000000	0.000000	0.000000	0.000000	0.000000	0.000000	0.000000	0.000000	0.000000	0.000000	0.000000	0.000000	14.760330	14.387670	18.369030	57.907980	-2.189415	21.498280	0.003571	0.000000	0.000000	0.000000	0.000000	0.000000	0.000000	0.000000	0.000000	0.000000	0.000000	0.000000	0.000000	0.000000	0.000000	0.000000	0.000000	0.000000	0.000000	0.000000	0.000000	0.000000	0.000000	0.000000	0.000000	0.000000	0.000000	0.000000	0.000000	0.000000	0.000000	0.000000	0.000000	0.000000	0.000000	0.000000	0.000000	0.000000	0.000000	0.000000	0.000000	0.000000	0.000000	0.000000	0.000000	0.000000	0.000000	0.000000	0.000000	18.992470	0.023053	0.154415	0.855128	0.025177	3.342136	-9.409375	-14.881410	-8.567336	0.000000	0.000000	0.000000	14.973500	0.178111	-0.113063	12.862360	0.152698	-0.007336	-15.414600	7.470012	4.903199	0.000000	0.000000	0.000000
	-7.1972	85.5166	55.0016	-12.675310	-17.599250	-6.684002	0.000000	0.000000	0.000000	2.903828	-0.303468	1.765220	9.705851	-0.660552	5.927181	0.000000	0.000000	0.000000	0.000000	0.000000	0.000000	0.000000	0.000000	-15.293800	22.834440	-45.374520	-49.671130	9.266060	-18.581870	-4.382149	0.000000	0.000000	0.000000	0.000000	0.000000	0.000000	0.000000	0.000000	0.000000	0.000000	0.000000	0.000000	0.000000	0.000000	0.000000	0.000000	0.000000	0.000000	0.000000	0.000000	0.000000	0.000000	0.000000	0.000000	0.000000	0.000000	0.000000	0.000000	0.000000	0.000000	0.000000	0.000000	0.000000	0.000000	0.000000	0.000000	0.000000	0.000000	0.000000	0.000000	0.000000	0.000000	0.000000	0.000000	0.000000	0.000000	0.000000	0.000000	0.000000	0.000000	14.696020	14.750210	18.629250	57.592290	-1.626025	21.489320	0.011724	0.000000	0.000000	0.000000	0.000000	0.000000	0.000000	0.000000	0.000000	0.000000	0.000000	0.000000	0.000000	0.000000	0.000000	0.000000	0.000000	0.000000	0.000000	0.000000	0.000000	0.000000	0.000000	0.000000	0.000000	0.000000	0.000000	0.000000	0.000000	0.000000	0.000000	0.000000	0.000000	0.000000	0.000000	0.000000	0.000000	0.000000	0.000000	0.000000	0.000000	0.000000	0.000000	0.000000	0.000000	0.000000	0.000000	0.000000	0.000000	19.261140	0.092381	0.582488	0.379045	0.011472	3.428006	-9.430110	-15.007900	-8.651265	0.000000	0.000000	0.000000	15.097220	0.553873	0.276164	13.050310	0.469600	-0.082608	-16.305550	7.976591	5.327029	0.000000	0.000000	0.000000
	-7.1675	85.4493	54.9467	-12.420080	-17.011680	-6.869349	0.000000	0.000000	0.000000	2.872269	-0.435485	1.794603	9.617933	-1.097022	6.050952	0.000000	0.000000	0.000000	0.000000	0.000000	0.000000	0.000000	0.000000	-15.281950	20.452980	-43.621820	-51.239620	9.131338	-18.415480	-5.176313	0.000000	0.000000	0.000000	0.000000	0.000000	0.000000	0.000000	0.000000	0.000000	0.000000	0.000000	0.000000	0.000000	0.000000	0.000000	0.000000	0.000000	0.000000	0.000000	0.000000	0.000000	0.000000	0.000000	0.000000	0.000000	0.000000	0.000000	0.000000	0.000000	0.000000	0.000000	0.000000	0.000000	0.000000	0.000000	0.000000	0.000000	0.000000	0.000000	0.000000	0.000000	0.000000	0.000000	0.000000	0.000000	0.000000	0.000000	0.000000	0.000000	0.000000	14.674350	15.001850	18.648900	57.551320	-1.372910	22.022300	0.015286	0.000000	0.000000	0.000000	0.000000	0.000000	0.000000	0.000000	0.000000	0.000000	0.000000	0.000000	0.000000	0.000000	0.000000	0.000000	0.000000	0.000000	0.000000	0.000000	0.000000	0.000000	0.000000	0.000000	0.000000	0.000000	0.000000	0.000000	0.000000	0.000000	0.000000	0.000000	0.000000	0.000000	0.000000	0.000000	0.000000	0.000000	0.000000	0.000000	0.000000	0.000000	0.000000	0.000000	0.000000	0.000000	0.000000	0.000000	0.000000	19.053830	0.172764	1.087735	0.189180	0.005452	3.518218	-9.732058	-15.463350	-8.978306	0.000000	0.000000	0.000000	14.778640	0.977964	0.661581	13.610220	0.848461	-0.176966	-16.803840	7.737327	5.216558	0.000000	0.000000	0.000000
	-7.2257	85.4184	54.7867	-12.136670	-16.401430	-6.833111	0.000000	0.000000	0.000000	2.850350	-0.565205	1.772469	9.561165	-1.534757	6.002298	0.000000	0.000000	0.000000	0.000000	0.000000	0.000000	0.000000	0.000000	-15.346470	18.205220	-41.698420	-52.824360	8.567992	-18.081050	-5.555834	0.000000	0.000000	0.000000	0.000000	0.000000	0.000000	0.000000	0.000000	0.000000	0.000000	0.000000	0.000000	0.000000	0.000000	0.000000	0.000000	0.000000	0.000000	0.000000	0.000000	0.000000	0.000000	0.000000	0.000000	0.000000	0.000000	0.000000	0.000000	0.000000	0.000000	0.000000	0.000000	0.000000	0.000000	0.000000	0.000000	0.000000	0.000000	0.000000	0.000000	0.000000	0.000000	0.000000	0.000000	0.000000	0.000000	0.000000	0.000000	0.000000	0.000000	14.688110	15.175320	18.481230	57.772430	-1.374685	23.113310	0.019534	0.000000	0.000000	0.000000	0.000000	0.000000	0.000000	0.000000	0.000000	0.000000	0.000000	0.000000	0.000000	0.000000	0.000000	0.000000	0.000000	0.000000	0.000000	0.000000	0.000000	0.000000	0.000000	0.000000	0.000000	0.000000	0.000000	0.000000	0.000000	0.000000	0.000000	0.000000	0.000000	0.000000	0.000000	0.000000	0.000000	0.000000	0.000000	0.000000	0.000000	0.000000	0.000000	0.000000	0.000000	0.000000	0.000000	0.000000	0.000000	18.637340	0.215307	1.390702	0.478108	0.014920	3.555308	-9.651967	-15.992850	-9.275361	0.000000	0.000000	0.000000	14.284870	1.196009	0.937376	14.238720	1.048034	-0.232371	-17.102800	7.246367	4.910437	0.000000	0.000000	0.000000
	-7.1615	85.3985	54.7250	-11.853420	-16.087530	-6.662537	0.000000	0.000000	0.000000	2.811696	-0.731310	1.768363	9.453754	-2.091571	6.020555	0.000000	0.000000	0.000000	0.000000	0.000000	0.000000	0.000000	0.000000	-15.465010	16.417250	-38.789380	-54.725070	7.241169	-18.196920	-4.922397	0.000000	0.000000	0.000000	0.000000	0.000000	0.000000	0.000000	0.000000	0.000000	0.000000	0.000000	0.000000	0.000000	0.000000	0.000000	0.000000	0.000000	0.000000	0.000000	0.000000	0.000000	0.000000	0.000000	0.000000	0.000000	0.000000	0.000000	0.000000	0.000000	0.000000	0.000000	0.000000	0.000000	0.000000	0.000000	0.000000	0.000000	0.000000	0.000000	0.000000	0.000000	0.000000	0.000000	0.000000	0.000000	0.000000	0.000000	0.000000	0.000000	0.000000	14.741280	14.929090	18.387980	58.026000	-1.731123	23.538280	0.014148	0.000000	0.000000	0.000000	0.000000	0.000000	0.000000	0.000000	0.000000	0.000000	0.000000	0.000000	0.000000	0.000000	0.000000	0.000000	0.000000	0.000000	0.000000	0.000000	0.000000	0.000000	0.000000	0.000000	0.000000	0.000000	0.000000	0.000000	0.000000	0.000000	0.000000	0.000000	0.000000	0.000000	0.000000	0.000000	0.000000	0.000000	0.000000	0.000000	0.000000	0.000000	0.000000	0.000000	0.000000	0.000000	0.000000	0.000000	0.000000	18.267180	0.195615	1.317073	0.840201	0.026425	3.596216	-8.950155	-16.040100	-9.174068	0.000000	0.000000	0.000000	13.911330	1.143939	0.987782	14.426240	1.004770	-0.224253	-17.222220	6.826109	4.635158	0.000000	0.000000	0.000000
